<?xml version="1.0" encoding="utf-8" standalone="no"?>
<!DOCTYPE svg PUBLIC "-//W3C//DTD SVG 1.1//EN"
  "http://www.w3.org/Graphics/SVG/1.1/DTD/svg11.dtd">
<!-- Created with matplotlib (http://matplotlib.org/) -->
<svg height="240pt" version="1.1" viewBox="0 0 564 240" width="564pt" xmlns="http://www.w3.org/2000/svg" xmlns:xlink="http://www.w3.org/1999/xlink">
 <defs>
  <style type="text/css">
*{stroke-linecap:butt;stroke-linejoin:round;stroke-miterlimit:100000;}
  </style>
 </defs>
 <g id="figure_1">
  <g id="patch_1">
   <path d="M 0 240.132056 
L 564.48 240.132056 
L 564.48 0 
L 0 0 
z
" style="fill:#ffffff;"/>
  </g>
  <g id="axes_1">
   <g id="patch_2">
    <path d="M 7.2 232.932056 
L 557.28 232.932056 
L 557.28 7.2 
L 7.2 7.2 
z
" style="fill:#ffffff;"/>
   </g>
   <g id="patch_3">
    <path clip-path="url(#p455badb9a4)" d="M 90.395282 124.773516 
Q 121.61992 128.99605 150.628659 132.918926 
" style="fill:none;stroke:#000000;stroke-linecap:round;stroke-width:2.0;"/>
    <path clip-path="url(#p455badb9a4)" d="M 141.388916 126.623917 
L 150.628659 132.918926 
L 140.048806 136.533715 
L 141.388916 126.623917 
z
" style="stroke:#000000;stroke-linecap:round;stroke-width:2.0;"/>
   </g>
   <g id="patch_4">
    <path clip-path="url(#p455badb9a4)" d="M 92.61118 125.073174 
Q 121.61992 128.99605 152.844558 133.218584 
" style="fill:none;stroke:#000000;stroke-linecap:round;stroke-width:2.0;"/>
    <path clip-path="url(#p455badb9a4)" d="M 101.850923 131.368184 
L 92.61118 125.073174 
L 103.191034 121.458385 
L 101.850923 131.368184 
z
" style="stroke:#000000;stroke-linecap:round;stroke-width:2.0;"/>
   </g>
   <g id="patch_5">
    <path clip-path="url(#p455badb9a4)" d="M 120.935985 164.6768 
Q 137.586527 151.485201 152.484397 139.682178 
" style="fill:none;stroke:#000000;stroke-linecap:round;stroke-width:2.0;"/>
    <path clip-path="url(#p455badb9a4)" d="M 141.541263 141.972985 
L 152.484397 139.682178 
L 147.751162 149.81117 
L 141.541263 141.972985 
z
" style="stroke:#000000;stroke-linecap:round;stroke-width:2.0;"/>
   </g>
   <g id="patch_6">
    <path clip-path="url(#p455badb9a4)" d="M 122.688656 163.288225 
Q 137.586527 151.485201 154.237069 138.293602 
" style="fill:none;stroke:#000000;stroke-linecap:round;stroke-width:2.0;"/>
    <path clip-path="url(#p455badb9a4)" d="M 133.631791 160.997417 
L 122.688656 163.288225 
L 127.421891 153.159232 
L 133.631791 160.997417 
z
" style="stroke:#000000;stroke-linecap:round;stroke-width:2.0;"/>
   </g>
   <g id="patch_7">
    <path clip-path="url(#p455badb9a4)" d="M 81.22611 130.1092 
Q 73.436997 149.478403 66.482163 166.773002 
" style="fill:none;stroke:#000000;stroke-linecap:round;stroke-width:2.0;"/>
    <path clip-path="url(#p455badb9a4)" d="M 74.852126 159.360599 
L 66.482163 166.773002 
L 65.574218 155.62959 
L 74.852126 159.360599 
z
" style="stroke:#000000;stroke-linecap:round;stroke-width:2.0;"/>
   </g>
   <g id="patch_8">
    <path clip-path="url(#p455badb9a4)" d="M 80.391831 132.183803 
Q 73.436997 149.478403 65.647884 168.847606 
" style="fill:none;stroke:#000000;stroke-linecap:round;stroke-width:2.0;"/>
    <path clip-path="url(#p455badb9a4)" d="M 72.021868 139.596207 
L 80.391831 132.183803 
L 81.299775 143.327216 
L 72.021868 139.596207 
z
" style="stroke:#000000;stroke-linecap:round;stroke-width:2.0;"/>
   </g>
   <g id="patch_9">
    <path clip-path="url(#p455badb9a4)" d="M 108.992222 169.643098 
Q 89.403604 171.967554 72.035476 174.028518 
" style="fill:none;stroke:#000000;stroke-linecap:round;stroke-width:2.0;"/>
    <path clip-path="url(#p455badb9a4)" d="M 82.55499 177.815315 
L 72.035476 174.028518 
L 81.376621 167.884985 
L 82.55499 177.815315 
z
" style="stroke:#000000;stroke-linecap:round;stroke-width:2.0;"/>
   </g>
   <g id="patch_10">
    <path clip-path="url(#p455badb9a4)" d="M 106.771732 169.906589 
Q 89.403604 171.967554 69.814986 174.29201 
" style="fill:none;stroke:#000000;stroke-linecap:round;stroke-width:2.0;"/>
    <path clip-path="url(#p455badb9a4)" d="M 96.252218 166.119793 
L 106.771732 169.906589 
L 97.430587 176.050123 
L 96.252218 166.119793 
z
" style="stroke:#000000;stroke-linecap:round;stroke-width:2.0;"/>
   </g>
   <g id="patch_11">
    <path clip-path="url(#p455badb9a4)" d="M 77.476697 126.328138 
Q 54.117188 135.494567 32.839222 143.844184 
" style="fill:none;stroke:#000000;stroke-linecap:round;stroke-width:2.0;"/>
    <path clip-path="url(#p455badb9a4)" d="M 43.974608 144.845763 
L 32.839222 143.844184 
L 40.321717 135.536822 
L 43.974608 144.845763 
z
" style="stroke:#000000;stroke-linecap:round;stroke-width:2.0;"/>
   </g>
   <g id="patch_12">
    <path clip-path="url(#p455badb9a4)" d="M 75.395154 127.144949 
Q 54.117188 135.494567 30.757679 144.660996 
" style="fill:none;stroke:#000000;stroke-linecap:round;stroke-width:2.0;"/>
    <path clip-path="url(#p455badb9a4)" d="M 64.259767 126.14337 
L 75.395154 127.144949 
L 67.912659 135.452311 
L 64.259767 126.14337 
z
" style="stroke:#000000;stroke-linecap:round;stroke-width:2.0;"/>
   </g>
   <g id="patch_13">
    <path clip-path="url(#p455badb9a4)" d="M 111.775934 163.370037 
Q 99.700652 146.361863 88.919842 131.176967 
" style="fill:none;stroke:#000000;stroke-linecap:round;stroke-width:2.0;"/>
    <path clip-path="url(#p455badb9a4)" d="M 90.631921 142.225442 
L 88.919842 131.176967 
L 98.785869 136.436389 
L 90.631921 142.225442 
z
" style="stroke:#000000;stroke-linecap:round;stroke-width:2.0;"/>
   </g>
   <g id="patch_14">
    <path clip-path="url(#p455badb9a4)" d="M 110.481462 161.546758 
Q 99.700652 146.361863 87.625371 129.353689 
" style="fill:none;stroke:#000000;stroke-linecap:round;stroke-width:2.0;"/>
    <path clip-path="url(#p455badb9a4)" d="M 108.769383 150.498284 
L 110.481462 161.546758 
L 100.615435 156.287337 
L 108.769383 150.498284 
z
" style="stroke:#000000;stroke-linecap:round;stroke-width:2.0;"/>
   </g>
   <g id="patch_15">
    <path clip-path="url(#p455badb9a4)" d="M 81.428081 117.558755 
Q 71.312638 89.861666 61.964286 64.264952 
" style="fill:none;stroke:#000000;stroke-linecap:round;stroke-width:2.0;"/>
    <path clip-path="url(#p455badb9a4)" d="M 60.698247 75.373379 
L 61.964286 64.264952 
L 70.091404 71.942839 
L 60.698247 75.373379 
z
" style="stroke:#000000;stroke-linecap:round;stroke-width:2.0;"/>
   </g>
   <g id="patch_16">
    <path clip-path="url(#p455badb9a4)" d="M 80.660989 115.458381 
Q 71.312638 89.861666 61.197194 62.164578 
" style="fill:none;stroke:#000000;stroke-linecap:round;stroke-width:2.0;"/>
    <path clip-path="url(#p455badb9a4)" d="M 81.927029 104.349954 
L 80.660989 115.458381 
L 72.533872 107.780493 
L 81.927029 104.349954 
z
" style="stroke:#000000;stroke-linecap:round;stroke-width:2.0;"/>
   </g>
   <g id="patch_17">
    <path clip-path="url(#p455badb9a4)" d="M 166.215684 133.718253 
Q 192.2081 132.164356 215.968433 130.743899 
" style="fill:none;stroke:#000000;stroke-linecap:round;stroke-width:2.0;"/>
    <path clip-path="url(#p455badb9a4)" d="M 205.687874 126.349572 
L 215.968433 130.743899 
L 206.284636 136.33175 
L 205.687874 126.349572 
z
" style="stroke:#000000;stroke-linecap:round;stroke-width:2.0;"/>
   </g>
   <g id="patch_18">
    <path clip-path="url(#p455badb9a4)" d="M 168.447767 133.584813 
Q 192.2081 132.164356 218.200516 130.610459 
" style="fill:none;stroke:#000000;stroke-linecap:round;stroke-width:2.0;"/>
    <path clip-path="url(#p455badb9a4)" d="M 178.728325 137.979141 
L 168.447767 133.584813 
L 178.131564 127.996963 
L 178.728325 137.979141 
z
" style="stroke:#000000;stroke-linecap:round;stroke-width:2.0;"/>
   </g>
   <g id="patch_19">
    <path clip-path="url(#p455badb9a4)" d="M 29.945508 151.057686 
Q 43.82014 161.100258 55.883402 169.831745 
" style="fill:none;stroke:#000000;stroke-linecap:round;stroke-width:2.0;"/>
    <path clip-path="url(#p455badb9a4)" d="M 50.714385 159.918055 
L 55.883402 169.831745 
L 44.851039 168.018745 
L 50.714385 159.918055 
z
" style="stroke:#000000;stroke-linecap:round;stroke-width:2.0;"/>
   </g>
   <g id="patch_20">
    <path clip-path="url(#p455badb9a4)" d="M 31.756878 152.36877 
Q 43.82014 161.100258 57.694771 171.142829 
" style="fill:none;stroke:#000000;stroke-linecap:round;stroke-width:2.0;"/>
    <path clip-path="url(#p455badb9a4)" d="M 36.925895 162.28246 
L 31.756878 152.36877 
L 42.78924 154.18177 
L 36.925895 162.28246 
z
" style="stroke:#000000;stroke-linecap:round;stroke-width:2.0;"/>
   </g>
   <g id="patch_21">
    <path clip-path="url(#p455badb9a4)" d="M 531.415241 219.243312 
Q 440.106715 191.247902 346.660347 162.597025 
" style="fill:none;stroke:#000000;stroke-linecap:round;stroke-width:2.0;"/>
    <path clip-path="url(#p455badb9a4)" d="M 523.320196 211.531618 
L 531.415241 219.243312 
L 520.388858 221.092332 
L 523.320196 211.531618 
z
" style="stroke:#000000;stroke-linecap:round;stroke-width:2.0;"/>
   </g>
   <g id="patch_22">
    <path clip-path="url(#p455badb9a4)" d="M 538.472798 215.318395 
Q 516.562002 120.066028 495.152475 26.992819 
" style="fill:none;stroke:#000000;stroke-linecap:round;stroke-width:2.0;"/>
    <path clip-path="url(#p455badb9a4)" d="M 492.521474 37.859182 
L 495.152475 26.992819 
L 502.266964 35.617437 
L 492.521474 37.859182 
z
" style="stroke:#000000;stroke-linecap:round;stroke-width:2.0;"/>
   </g>
   <g id="patch_23">
    <path clip-path="url(#p455badb9a4)" d="M 346.790047 154.522543 
Q 416.689047 89.444744 488.224618 22.843255 
" style="fill:none;stroke:#000000;stroke-linecap:round;stroke-width:2.0;"/>
    <path clip-path="url(#p455badb9a4)" d="M 357.516094 151.367875 
L 346.790047 154.522543 
L 350.701941 144.048905 
L 357.516094 151.367875 
z
" style="stroke:#000000;stroke-linecap:round;stroke-width:2.0;"/>
   </g>
   <g id="matplotlib.axis_1"/>
   <g id="matplotlib.axis_2"/>
   <g id="patch_24">
    <path d="M 115.667259 175.572883 
C 117.44992 175.572883 119.159807 174.864624 120.420338 173.604093 
C 121.68087 172.343562 122.389128 170.633674 122.389128 168.851014 
C 122.389128 167.068353 121.68087 165.358466 120.420338 164.097934 
C 119.159807 162.837403 117.44992 162.129145 115.667259 162.129145 
C 113.884599 162.129145 112.174711 162.837403 110.91418 164.097934 
C 109.653649 165.358466 108.94539 167.068353 108.94539 168.851014 
C 108.94539 170.633674 109.653649 172.343562 110.91418 173.604093 
C 112.174711 174.864624 113.884599 175.572883 115.667259 175.572883 
z
" style="fill:#fec7b8;stroke:#000000;stroke-linejoin:miter;"/>
   </g>
   <g id="patch_25">
    <path d="M 159.505794 140.841258 
C 161.288455 140.841258 162.998342 140.132999 164.258874 138.872468 
C 165.519405 137.611936 166.227664 135.902049 166.227664 134.119388 
C 166.227664 132.336728 165.519405 130.626841 164.258874 129.366309 
C 162.998342 128.105778 161.288455 127.397519 159.505794 127.397519 
C 157.723134 127.397519 156.013246 128.105778 154.752715 129.366309 
C 153.492184 130.626841 152.783925 132.336728 152.783925 134.119388 
C 152.783925 135.902049 153.492184 137.611936 154.752715 138.872468 
C 156.013246 140.132999 157.723134 140.841258 159.505794 140.841258 
z
" style="fill:#fec7b8;stroke:#000000;stroke-linejoin:miter;"/>
   </g>
   <g id="patch_26">
    <path d="M 83.734045 130.594581 
C 85.516705 130.594581 87.226593 129.886322 88.487124 128.625791 
C 89.747656 127.36526 90.455914 125.655372 90.455914 123.872712 
C 90.455914 122.090051 89.747656 120.380164 88.487124 119.119633 
C 87.226593 117.859101 85.516705 117.150843 83.734045 117.150843 
C 81.951384 117.150843 80.241497 117.859101 78.980966 119.119633 
C 77.720434 120.380164 77.012176 122.090051 77.012176 123.872712 
C 77.012176 125.655372 77.720434 127.36526 78.980966 128.625791 
C 80.241497 129.886322 81.951384 130.594581 83.734045 130.594581 
z
" style="fill:#fec7b8;stroke:#000000;stroke-linejoin:miter;"/>
   </g>
   <g id="patch_27">
    <path d="M 224.910405 136.931193 
C 226.693066 136.931193 228.402953 136.222935 229.663484 134.962403 
C 230.924016 133.701872 231.632274 131.991985 231.632274 130.209324 
C 231.632274 128.426664 230.924016 126.716776 229.663484 125.456245 
C 228.402953 124.195714 226.693066 123.487455 224.910405 123.487455 
C 223.127745 123.487455 221.417857 124.195714 220.157326 125.456245 
C 218.896794 126.716776 218.188536 128.426664 218.188536 130.209324 
C 218.188536 131.991985 218.896794 133.701872 220.157326 134.962403 
C 221.417857 136.222935 223.127745 136.931193 224.910405 136.931193 
z
" style="fill:#fec7b8;stroke:#000000;stroke-linejoin:miter;"/>
   </g>
   <g id="patch_28">
    <path d="M 58.891231 62.57249 
C 60.673891 62.57249 62.383778 61.864232 63.64431 60.6037 
C 64.904841 59.343169 65.6131 57.633281 65.6131 55.850621 
C 65.6131 54.06796 64.904841 52.358073 63.64431 51.097542 
C 62.383778 49.83701 60.673891 49.128752 58.891231 49.128752 
C 57.10857 49.128752 55.398683 49.83701 54.138151 51.097542 
C 52.87762 52.358073 52.169361 54.06796 52.169361 55.850621 
C 52.169361 57.633281 52.87762 59.343169 54.138151 60.6037 
C 55.398683 61.864232 57.10857 62.57249 58.891231 62.57249 
z
" style="fill:#fec7b8;stroke:#000000;stroke-linejoin:miter;"/>
   </g>
   <g id="patch_29">
    <path d="M 539.979669 228.591055 
C 541.76233 228.591055 543.472217 227.882797 544.732749 226.622265 
C 545.99328 225.361734 546.701538 223.651847 546.701538 221.869186 
C 546.701538 220.086526 545.99328 218.376638 544.732749 217.116107 
C 543.472217 215.855576 541.76233 215.147317 539.979669 215.147317 
C 538.197009 215.147317 536.487121 215.855576 535.22659 217.116107 
C 533.966059 218.376638 533.2578 220.086526 533.2578 221.869186 
C 533.2578 223.651847 533.966059 225.361734 535.22659 226.622265 
C 536.487121 227.882797 538.197009 228.591055 539.979669 228.591055 
z
" style="fill:#fec7b8;stroke:#000000;stroke-linejoin:miter;"/>
   </g>
   <g id="patch_30">
    <path d="M 24.500331 153.83829 
C 26.282991 153.83829 27.992879 153.130032 29.25341 151.869501 
C 30.513941 150.608969 31.2222 148.899082 31.2222 147.116421 
C 31.2222 145.333761 30.513941 143.623873 29.25341 142.363342 
C 27.992879 141.102811 26.282991 140.394552 24.500331 140.394552 
C 22.71767 140.394552 21.007783 141.102811 19.747251 142.363342 
C 18.48672 143.623873 17.778462 145.333761 17.778462 147.116421 
C 17.778462 148.899082 18.48672 150.608969 19.747251 151.869501 
C 21.007783 153.130032 22.71767 153.83829 24.500331 153.83829 
z
" style="fill:#fec7b8;stroke:#000000;stroke-linejoin:miter;"/>
   </g>
   <g id="patch_31">
    <path d="M 340.23376 167.348487 
C 342.01642 167.348487 343.726308 166.640229 344.986839 165.379698 
C 346.24737 164.119166 346.955629 162.409279 346.955629 160.626618 
C 346.955629 158.843958 346.24737 157.13407 344.986839 155.873539 
C 343.726308 154.613008 342.01642 153.904749 340.23376 153.904749 
C 338.451099 153.904749 336.741212 154.613008 335.48068 155.873539 
C 334.220149 157.13407 333.511891 158.843958 333.511891 160.626618 
C 333.511891 162.409279 334.220149 164.119166 335.48068 165.379698 
C 336.741212 166.640229 338.451099 167.348487 340.23376 167.348487 
z
" style="fill:#fec7b8;stroke:#000000;stroke-linejoin:miter;"/>
   </g>
   <g id="patch_32">
    <path d="M 63.139949 181.805963 
C 64.922609 181.805963 66.632497 181.097704 67.893028 179.837173 
C 69.153559 178.576642 69.861818 176.866754 69.861818 175.084094 
C 69.861818 173.301433 69.153559 171.591546 67.893028 170.331015 
C 66.632497 169.070483 64.922609 168.362225 63.139949 168.362225 
C 61.357288 168.362225 59.647401 169.070483 58.386869 170.331015 
C 57.126338 171.591546 56.41808 173.301433 56.41808 175.084094 
C 56.41808 176.866754 57.126338 178.576642 58.386869 179.837173 
C 59.647401 181.097704 61.357288 181.805963 63.139949 181.805963 
z
" style="fill:#fec7b8;stroke:#000000;stroke-linejoin:miter;"/>
   </g>
   <g id="patch_33">
    <path d="M 493.144334 24.984739 
C 494.926995 24.984739 496.636882 24.276481 497.897413 23.015949 
C 499.157945 21.755418 499.866203 20.045531 499.866203 18.26287 
C 499.866203 16.48021 499.157945 14.770322 497.897413 13.509791 
C 496.636882 12.24926 494.926995 11.541001 493.144334 11.541001 
C 491.361674 11.541001 489.651786 12.24926 488.391255 13.509791 
C 487.130724 14.770322 486.422465 16.48021 486.422465 18.26287 
C 486.422465 20.045531 487.130724 21.755418 488.391255 23.015949 
C 489.651786 24.276481 491.361674 24.984739 493.144334 24.984739 
z
" style="fill:#fec7b8;stroke:#000000;stroke-linejoin:miter;"/>
   </g>
   <g id="text_1">
    <!-- A -->
    <defs>
     <path d="M 34.1875 63.1875 
L 20.796875 26.90625 
L 47.609375 26.90625 
z
M 28.609375 72.90625 
L 39.796875 72.90625 
L 67.578125 0 
L 57.328125 0 
L 50.6875 18.703125 
L 17.828125 18.703125 
L 11.1875 0 
L 0.78125 0 
z
" id="BitstreamVeraSans-Roman-41"/>
    </defs>
    <g transform="translate(112.24694666 171.61038874)scale(0.1 -0.1)">
     <use xlink:href="#BitstreamVeraSans-Roman-41"/>
    </g>
   </g>
   <g id="text_2">
    <!-- B -->
    <defs>
     <path d="M 19.671875 34.8125 
L 19.671875 8.109375 
L 35.5 8.109375 
Q 43.453125 8.109375 47.28125 11.40625 
Q 51.125 14.703125 51.125 21.484375 
Q 51.125 28.328125 47.28125 31.5625 
Q 43.453125 34.8125 35.5 34.8125 
z
M 19.671875 64.796875 
L 19.671875 42.828125 
L 34.28125 42.828125 
Q 41.5 42.828125 45.03125 45.53125 
Q 48.578125 48.25 48.578125 53.8125 
Q 48.578125 59.328125 45.03125 62.0625 
Q 41.5 64.796875 34.28125 64.796875 
z
M 9.8125 72.90625 
L 35.015625 72.90625 
Q 46.296875 72.90625 52.390625 68.21875 
Q 58.5 63.53125 58.5 54.890625 
Q 58.5 48.1875 55.375 44.234375 
Q 52.25 40.28125 46.1875 39.3125 
Q 53.46875 37.75 57.5 32.78125 
Q 61.53125 27.828125 61.53125 20.40625 
Q 61.53125 10.640625 54.890625 5.3125 
Q 48.25 0 35.984375 0 
L 9.8125 0 
z
" id="BitstreamVeraSans-Roman-42"/>
    </defs>
    <g transform="translate(80.3035761812 126.632086896)scale(0.1 -0.1)">
     <use xlink:href="#BitstreamVeraSans-Roman-42"/>
    </g>
   </g>
   <g id="text_3">
    <!-- C -->
    <defs>
     <path d="M 64.40625 67.28125 
L 64.40625 56.890625 
Q 59.421875 61.53125 53.78125 63.8125 
Q 48.140625 66.109375 41.796875 66.109375 
Q 29.296875 66.109375 22.65625 58.46875 
Q 16.015625 50.828125 16.015625 36.375 
Q 16.015625 21.96875 22.65625 14.328125 
Q 29.296875 6.6875 41.796875 6.6875 
Q 48.140625 6.6875 53.78125 8.984375 
Q 59.421875 11.28125 64.40625 15.921875 
L 64.40625 5.609375 
Q 59.234375 2.09375 53.4375 0.328125 
Q 47.65625 -1.421875 41.21875 -1.421875 
Q 24.65625 -1.421875 15.125 8.703125 
Q 5.609375 18.84375 5.609375 36.375 
Q 5.609375 53.953125 15.125 64.078125 
Q 24.65625 74.21875 41.21875 74.21875 
Q 47.75 74.21875 53.53125 72.484375 
Q 59.328125 70.75 64.40625 67.28125 
" id="BitstreamVeraSans-Roman-43"/>
    </defs>
    <g transform="translate(156.014388112 136.878763431)scale(0.1 -0.1)">
     <use xlink:href="#BitstreamVeraSans-Roman-43"/>
    </g>
   </g>
   <g id="text_4">
    <!-- D -->
    <defs>
     <path d="M 19.671875 64.796875 
L 19.671875 8.109375 
L 31.59375 8.109375 
Q 46.6875 8.109375 53.6875 14.9375 
Q 60.6875 21.78125 60.6875 36.53125 
Q 60.6875 51.171875 53.6875 57.984375 
Q 46.6875 64.796875 31.59375 64.796875 
z
M 9.8125 72.90625 
L 30.078125 72.90625 
Q 51.265625 72.90625 61.171875 64.09375 
Q 71.09375 55.28125 71.09375 36.53125 
Q 71.09375 17.671875 61.125 8.828125 
Q 51.171875 0 30.078125 0 
L 9.8125 0 
z
" id="BitstreamVeraSans-Roman-44"/>
    </defs>
    <g transform="translate(55.0412306007 58.6099959553)scale(0.1 -0.1)">
     <use xlink:href="#BitstreamVeraSans-Roman-44"/>
    </g>
   </g>
   <g id="text_5">
    <!-- E -->
    <defs>
     <path d="M 9.8125 72.90625 
L 55.90625 72.90625 
L 55.90625 64.59375 
L 19.671875 64.59375 
L 19.671875 43.015625 
L 54.390625 43.015625 
L 54.390625 34.71875 
L 19.671875 34.71875 
L 19.671875 8.296875 
L 56.78125 8.296875 
L 56.78125 0 
L 9.8125 0 
z
" id="BitstreamVeraSans-Roman-45"/>
    </defs>
    <g transform="translate(221.751030088 132.968699144)scale(0.1 -0.1)">
     <use xlink:href="#BitstreamVeraSans-Roman-45"/>
    </g>
   </g>
   <g id="text_6">
    <!-- F -->
    <defs>
     <path d="M 9.8125 72.90625 
L 51.703125 72.90625 
L 51.703125 64.59375 
L 19.671875 64.59375 
L 19.671875 43.109375 
L 48.578125 43.109375 
L 48.578125 34.8125 
L 19.671875 34.8125 
L 19.671875 0 
L 9.8125 0 
z
" id="BitstreamVeraSans-Roman-46"/>
    </defs>
    <g transform="translate(21.6245494269 149.875796267)scale(0.1 -0.1)">
     <use xlink:href="#BitstreamVeraSans-Roman-46"/>
    </g>
   </g>
   <g id="text_7">
    <!-- G -->
    <defs>
     <path d="M 59.515625 10.40625 
L 59.515625 29.984375 
L 43.40625 29.984375 
L 43.40625 38.09375 
L 69.28125 38.09375 
L 69.28125 6.78125 
Q 63.578125 2.734375 56.6875 0.65625 
Q 49.8125 -1.421875 42 -1.421875 
Q 24.90625 -1.421875 15.25 8.5625 
Q 5.609375 18.5625 5.609375 36.375 
Q 5.609375 54.25 15.25 64.234375 
Q 24.90625 74.21875 42 74.21875 
Q 49.125 74.21875 55.546875 72.453125 
Q 61.96875 70.703125 67.390625 67.28125 
L 67.390625 56.78125 
Q 61.921875 61.421875 55.765625 63.765625 
Q 49.609375 66.109375 42.828125 66.109375 
Q 29.4375 66.109375 22.71875 58.640625 
Q 16.015625 51.171875 16.015625 36.375 
Q 16.015625 21.625 22.71875 14.15625 
Q 29.4375 6.6875 42.828125 6.6875 
Q 48.046875 6.6875 52.140625 7.59375 
Q 56.25 8.5 59.515625 10.40625 
" id="BitstreamVeraSans-Roman-47"/>
    </defs>
    <g transform="translate(536.105450573 224.628561155)scale(0.1 -0.1)">
     <use xlink:href="#BitstreamVeraSans-Roman-47"/>
    </g>
   </g>
   <g id="text_8">
    <!-- H -->
    <defs>
     <path d="M 9.8125 72.90625 
L 19.671875 72.90625 
L 19.671875 43.015625 
L 55.515625 43.015625 
L 55.515625 72.90625 
L 65.375 72.90625 
L 65.375 0 
L 55.515625 0 
L 55.515625 34.71875 
L 19.671875 34.71875 
L 19.671875 0 
L 9.8125 0 
z
" id="BitstreamVeraSans-Roman-48"/>
    </defs>
    <g transform="translate(59.3797924807 177.843468756)scale(0.1 -0.1)">
     <use xlink:href="#BitstreamVeraSans-Roman-48"/>
    </g>
   </g>
   <g id="text_9">
    <!-- I -->
    <defs>
     <path d="M 9.8125 72.90625 
L 19.671875 72.90625 
L 19.671875 0 
L 9.8125 0 
z
" id="BitstreamVeraSans-Roman-49"/>
    </defs>
    <g transform="translate(338.75875975 163.385993275)scale(0.1 -0.1)">
     <use xlink:href="#BitstreamVeraSans-Roman-49"/>
    </g>
   </g>
   <g id="text_10">
    <!-- J -->
    <defs>
     <path d="M 9.8125 72.90625 
L 19.671875 72.90625 
L 19.671875 5.078125 
Q 19.671875 -8.109375 14.671875 -14.0625 
Q 9.671875 -20.015625 -1.421875 -20.015625 
L -5.171875 -20.015625 
L -5.171875 -11.71875 
L -2.09375 -11.71875 
Q 4.4375 -11.71875 7.125 -8.046875 
Q 9.8125 -4.390625 9.8125 5.078125 
z
" id="BitstreamVeraSans-Roman-4a"/>
    </defs>
    <g transform="translate(491.669334114 21.0222452226)scale(0.1 -0.1)">
     <use xlink:href="#BitstreamVeraSans-Roman-4a"/>
    </g>
   </g>
  </g>
 </g>
 <defs>
  <clipPath id="p455badb9a4">
   <rect height="225.732056378" width="550.08" x="7.2" y="7.2"/>
  </clipPath>
 </defs>
</svg>
